<svg
   version="1.1"
   id="svg2"
   width="100"
   height="50"
   viewBox="0 0 328.77332 146.81332"
   sodipodi:docname="Логотип_infotecs_для_печати_на_белом_фоне(вектор).eps"
   xmlns:inkscape="http://www.inkscape.org/namespaces/inkscape"
   xmlns:sodipodi="http://sodipodi.sourceforge.net/DTD/sodipodi-0.dtd"
   xmlns="http://www.w3.org/2000/svg"
   xmlns:svg="http://www.w3.org/2000/svg">
  <defs
     id="defs6" />
  <sodipodi:namedview
     id="namedview4"
     pagecolor="#ffffff"
     bordercolor="#000000"
     borderopacity="0.25"
     inkscape:showpageshadow="2"
     inkscape:pageopacity="0.0"
     inkscape:pagecheckerboard="0"
     inkscape:deskcolor="#d1d1d1" />
  <g
     id="g8"
     inkscape:groupmode="layer"
     inkscape:label="ink_ext_XXXXXX"
     transform="matrix(1.3333333,0,0,-1.3333333,0,146.81333)">
    <g
       id="g10"
       transform="scale(0.1)">
      <path
         d="M 2465.78,0 H 0 V 1101.11 H 2465.78 V 0"
         style="fill:#ffffff;fill-opacity:1;fill-rule:nonzero;stroke:none"
         id="path12" />
      <path
         d="m 1303.35,450.098 v 96.492 h 32.61 v 47.629 h -32.61 v 52.16 h -5.83 -58.23 v -52.16 H 1212.5 V 546.59 h 26.79 v -86.203 0 -13.543 c 0,-40.821 22.13,-61.231 65.23,-61.231 l 32.61,1.129 v 52.356 h -22.79 c -6.74,0 -10.99,5.961 -10.99,11"
         style="fill:#315c97;fill-opacity:1;fill-rule:nonzero;stroke:none"
         id="path14" />
      <path
         d="m 653.41,598.75 c -29.109,0 -46.59,-12.469 -55.906,-23.82 v 19.289 h -61.731 v -207.52 h 64.059 v 117.93 c 0,24.941 13.981,39.691 36.109,39.691 26.789,0 29.122,-15.871 29.122,-32.879 V 386.699 h 64.058 v 140.61 c 0,44.222 -29.117,71.441 -75.711,71.441"
         style="fill:#315c97;fill-opacity:1;fill-rule:nonzero;stroke:none"
         id="path16" />
      <path
         d="m 393.672,594.219 v -207.52 h 64.058 v 207.52 h -4.66 -59.398"
         style="fill:#315c97;fill-opacity:1;fill-rule:nonzero;stroke:none"
         id="path18" />
      <path
         d="m 878.211,607.039 c 0,5.035 4.258,10.996 11,10.996 h 22.781 v 52.356 l -32.609,1.129 c -43.102,0 -65.231,-20.411 -65.231,-61.227 V 594.219 H 785.031 V 546.59 h 29.121 V 386.699 h 64.059 V 546.59 h 34.949 v 47.629 h -34.949 v 12.82"
         style="fill:#315c97;fill-opacity:1;fill-rule:nonzero;stroke:none"
         id="path20" />
      <path
         d="m 1059.92,435.461 c -36.11,0 -43.1,29.48 -43.1,54.43 0,24.949 6.99,54.429 43.1,54.429 36.1,0 43.09,-29.48 43.09,-54.429 0,-24.95 -6.99,-54.43 -43.09,-54.43 z m 0,163.289 c -50.09,0 -108.326,-28.352 -108.326,-108.859 0,-80.512 58.236,-108.86 108.326,-108.86 50.08,0 108.32,28.348 108.32,108.86 0,80.507 -58.24,108.859 -108.32,108.859"
         style="fill:#315c97;fill-opacity:1;fill-rule:nonzero;stroke:none"
         id="path22" />
      <path
         d="m 554.254,710.379 c -2.641,-0.438 -9.793,-0.84 -16.66,1.051 -8.082,2.211 -18.801,6.609 -22.512,20.98 -3.699,14.379 3.18,26.789 9.488,31.93 2.133,1.738 9.403,5.82 14.301,7.449 44.711,14.82 133.832,39.133 288.93,47.93 130.441,7.402 225.229,-3.278 305.689,-15.34 39.12,-5.859 104.41,-19.91 154.34,-34.301 47.99,-13.828 65.72,-23.68 63.19,-32.457 -2.33,-8.07 -26.55,-5.75 -62.02,0.301 -27.28,4.648 -95.83,13.719 -163.81,20.449 -79.14,7.828 -181.389,11.738 -291.987,1.59 C 722.883,749.82 601.602,722.629 554.254,710.379"
         style="fill:#c94039;fill-opacity:1;fill-rule:nonzero;stroke:none"
         id="path24" />
      <path
         d="m 385.742,691.191 c 0,-20.929 17.649,-38.347 39.988,-38.347 22.352,0 39.993,17.418 39.993,38.347 0,22.063 -17.641,39.52 -39.993,39.52 -22.339,0 -39.988,-17.457 -39.988,-39.52"
         style="fill:#c94039;fill-opacity:1;fill-rule:nonzero;stroke:none"
         id="path26" />
      <path
         d="m 1482.72,545.461 c 9.32,0 29.13,-3.41 33.78,-30.621 h -68.72 c 4.66,20.41 16.31,30.621 34.94,30.621 z m 32.48,-97.332 c -4.82,-10.199 -17.24,-14.938 -27.82,-14.938 -33.77,0 -39.6,22.68 -41.93,37.418 h 138.61 v 14.743 c 0,102.058 -69.89,113.398 -100.17,113.398 -97.84,0 -102.5,-87.309 -102.5,-104.328 0,-73.703 36.11,-113.391 105.99,-113.391 46.59,0 81.53,24.949 94.35,66.91 l 0.03,0.188 h -66.56"
         style="fill:#315c97;fill-opacity:1;fill-rule:nonzero;stroke:none"
         id="path28" />
      <path
         d="m 1765.38,460.535 c -1.49,-8.172 -8.09,-26.215 -29.91,-26.215 -31.44,0 -34.94,29.481 -34.94,58.981 0,11.328 2.33,51.019 36.11,51.019 19.83,1.02 26.53,-12.496 29.4,-23.488 h 64.63 c -5.82,58.02 -51.57,77.918 -94.03,77.918 -65.23,0 -102.49,-40.828 -102.49,-114.531 0,-23.809 6.98,-103.188 99,-103.188 69.4,0 94.29,49.711 97.58,79.504 h -65.35"
         style="fill:#315c97;fill-opacity:1;fill-rule:nonzero;stroke:none"
         id="path30" />
      <path
         d="m 1991.73,519.379 c -19.81,3.402 -39.6,7.93 -39.6,15.871 0,4.531 0,13.602 26.79,13.602 20.19,0 26.48,-6.442 28.85,-13.981 h 63.58 c -5.86,42.219 -37.07,63.879 -94.76,63.879 -64.07,0 -87.37,-36.289 -87.37,-71.441 0,-47.618 48.93,-57.829 85.04,-64.629 20.96,-3.41 40.76,-7.95 40.76,-17.02 0,-6.801 -8.16,-14.738 -29.12,-14.738 -26.79,0 -35.24,8.574 -37.59,17.207 h -65.58 c 4.43,-42.422 41.06,-67.098 102.01,-67.098 45.42,0 94.34,19.278 94.34,73.699 0,47.641 -51.25,57.829 -87.35,64.649"
         style="fill:#315c97;fill-opacity:1;fill-rule:nonzero;stroke:none"
         id="path32" />
    </g>
  </g>
</svg>
