<svg width="100" height="50" viewBox="0 0 328.773 146.813" xmlns="http://www.w3.org/2000/svg"><path d="M2465.78 0H0v1101.11h2465.78V0" style="fill:#fff;fill-opacity:1;fill-rule:nonzero;stroke:none" transform="matrix(.13333 0 0 -.13333 0 146.813)"/><path d="M1303.35 450.098v96.492h32.61v47.629h-32.61v52.16h-64.06v-52.16h-26.79V546.59h26.79v-99.746c0-40.821 22.13-61.231 65.23-61.231l32.61 1.129v52.356h-22.79c-6.74 0-10.99 5.961-10.99 11M653.41 598.75c-29.109 0-46.59-12.469-55.906-23.82v19.289h-61.731v-207.52h64.059v117.93c0 24.941 13.981 39.691 36.109 39.691 26.789 0 29.122-15.871 29.122-32.879V386.699h64.058v140.61c0 44.222-29.117 71.441-75.711 71.441m-259.738-4.531v-207.52h64.058v207.52h-64.058m484.539 12.82c0 5.035 4.258 10.996 11 10.996h22.781v52.356l-32.609 1.129c-43.102 0-65.231-20.411-65.231-61.227v-16.074h-29.121V546.59h29.121V386.699h64.059V546.59h34.949v47.629h-34.949v12.82m181.709-171.578c-36.11 0-43.1 29.48-43.1 54.43 0 24.949 6.99 54.429 43.1 54.429 36.1 0 43.09-29.48 43.09-54.429 0-24.95-6.99-54.43-43.09-54.43zm0 163.289c-50.09 0-108.326-28.352-108.326-108.859 0-80.512 58.236-108.86 108.326-108.86 50.08 0 108.32 28.348 108.32 108.86 0 80.507-58.24 108.859-108.32 108.859" style="fill:#315c97;fill-opacity:1;fill-rule:nonzero;stroke:none" transform="matrix(.13333 0 0 -.13333 0 146.813)"/><path d="M554.254 710.379c-2.641-.438-9.793-.84-16.66 1.051-8.082 2.211-18.801 6.609-22.512 20.98-3.699 14.379 3.18 26.789 9.488 31.93 2.133 1.738 9.403 5.82 14.301 7.449 44.711 14.82 133.832 39.133 288.93 47.93 130.441 7.402 225.229-3.278 305.689-15.34 39.12-5.859 104.41-19.91 154.34-34.301 47.99-13.828 65.72-23.68 63.19-32.457-2.33-8.07-26.55-5.75-62.02.301-27.28 4.648-95.83 13.719-163.81 20.449-79.14 7.828-181.389 11.738-291.987 1.59-110.32-10.141-231.601-37.332-278.949-49.582m-168.512-19.188c0-20.929 17.649-38.347 39.988-38.347 22.352 0 39.993 17.418 39.993 38.347 0 22.063-17.641 39.52-39.993 39.52-22.339 0-39.988-17.457-39.988-39.52" style="fill:#c94039;fill-opacity:1;fill-rule:nonzero;stroke:none" transform="matrix(.13333 0 0 -.13333 0 146.813)"/><path d="M1482.72 545.461c9.32 0 29.13-3.41 33.78-30.621h-68.72c4.66 20.41 16.31 30.621 34.94 30.621zm32.48-97.332c-4.82-10.199-17.24-14.938-27.82-14.938-33.77 0-39.6 22.68-41.93 37.418h138.61v14.743c0 102.058-69.89 113.398-100.17 113.398-97.84 0-102.5-87.309-102.5-104.328 0-73.703 36.11-113.391 105.99-113.391 46.59 0 81.53 24.949 94.35 66.91l.03.188h-66.56m250.18 12.406c-1.49-8.172-8.09-26.215-29.91-26.215-31.44 0-34.94 29.481-34.94 58.981 0 11.328 2.33 51.019 36.11 51.019 19.83 1.02 26.53-12.496 29.4-23.488h64.63c-5.82 58.02-51.57 77.918-94.03 77.918-65.23 0-102.49-40.828-102.49-114.531 0-23.809 6.98-103.188 99-103.188 69.4 0 94.29 49.711 97.58 79.504h-65.35m226.35 58.844c-19.81 3.402-39.6 7.93-39.6 15.871 0 4.531 0 13.602 26.79 13.602 20.19 0 26.48-6.442 28.85-13.981h63.58c-5.86 42.219-37.07 63.879-94.76 63.879-64.07 0-87.37-36.289-87.37-71.441 0-47.618 48.93-57.829 85.04-64.629 20.96-3.41 40.76-7.95 40.76-17.02 0-6.801-8.16-14.738-29.12-14.738-26.79 0-35.24 8.574-37.59 17.207h-65.58c4.43-42.422 41.06-67.098 102.01-67.098 45.42 0 94.34 19.278 94.34 73.699 0 47.641-51.25 57.829-87.35 64.649" style="fill:#315c97;fill-opacity:1;fill-rule:nonzero;stroke:none" transform="matrix(.13333 0 0 -.13333 0 146.813)"/></svg>