<svg viewBox="0 0 32 32" xmlns="http://www.w3.org/2000/svg"><defs><style>.cls-2{fill:#0e6ae0}</style></defs><g id="Shield_Lock-2"><path d="M28 6c-8.49 0-11.16-3.54-11.18-3.57A1 1 0 0 0 16 2a.94.94 0 0 0-.83.42S12.49 6 4 6a1 1 0 0 0-1 1v8.76c0 9.25 7.11 12 11.35 13.66l1.27.5a.94.94 0 0 0 .76 0l1.26-.5C21.89 27.77 29 25 29 15.76V7a1 1 0 0 0-1-1Z" style="fill:#d8e1ef"/><path class="cls-2" d="M18 15h-4a1 1 0 0 1-1-1v-2a3 3 0 0 1 6 0v2a1 1 0 0 1-1 1Zm-3-2h2v-1a1 1 0 0 0-2 0Z"/><rect height="10" rx="3" ry="3" width="10" x="11" y="13" style="fill:#0593ff"/><path class="cls-2" d="M16 20a2 2 0 1 1 2-2 2 2 0 0 1-2 2Zm0-2Z"/></g></svg>